<svg xmlns="http://www.w3.org/2000/svg" viewBox="0 0 100 100" width="48" height="48">
  <path
    fill="#ff75aa"
    d="
      M25 15v4h4v-4z
      M30 15v4h4v-4z
      M35 15v4h4v-4z
      M40 15v4h4v-4z
      M45 15v4h4v-4z
      M50 15v4h4v-4z
      M55 15v4h4v-4z
      M60 15v4h4v-4z
      M65 15v4h4v-4z
      M70 15v4h4v-4z
      M20 20v4h4v-4z
      M75 20v4h4v-4z
      M20 25v4h4v-4z
      M75 25v4h4v-4z
      M20 30v4h4v-4z
      M75 30v4h4v-4z
      M20 35v4h4v-4z
      M75 35v4h4v-4z
      M20 40v4h4v-4z
      M75 40v4h4v-4z
      M20 45v4h4v-4z
      M40 45v4h4v-4z
      M45 45v4h4v-4z
      M75 45v4h4v-4z
      M20 50v4h4v-4z
      M40 50v4h4v-4z
      M45 50v4h4v-4z
      M60 50v4h4v-4z
      M75 50v4h4v-4z
      M5 55v4h4v-4z
      M10 55v4h4v-4z
      M15 55v4h4v-4z
      M20 55v4h4v-4z
      M55 55v4h4v-4z
      M65 55v4h4v-4z
      M75 55v4h4v-4z
      M80 55v4h4v-4z
      M85 55v4h4v-4z
      M90 55v4h4v-4z
      M0 60v4h4v-4z
      M20 60v4h4v-4z
      M30 60v4h4v-4z
      M35 60v4h4v-4z
      M40 60v4h4v-4z
      M55 60v4h4v-4z
      M65 60v4h4v-4z
      M75 60v4h4v-4z
      M95 60v4h4v-4z
      M0 65v4h4v-4z
      M20 65v4h4v-4z
      M35 65v4h4v-4z
      M40 65v4h4v-4z
      M45 65v4h4v-4z
      M60 65v4h4v-4z
      M75 65v4h4v-4z
      M95 65v4h4v-4z
      M0 70v4h4v-4z
      M20 70v4h4v-4z
      M75 70v4h4v-4z
      M95 70v4h4v-4z
      M0 75v4h4v-4z
      M20 75v4h4v-4z
      M35 75v4h4v-4z
      M65 75v4h4v-4z
      M75 75v4h4v-4z
      M95 75v4h4v-4z
      M5 80v4h4v-4z
      M10 80v4h4v-4z
      M15 80v4h4v-4z
      M20 80v4h4v-4z
      M30 80v4h4v-4z
      M40 80v4h4v-4z
      M55 80v4h4v-4z
      M65 80v4h4v-4z
      M75 80v4h4v-4z
      M80 80v4h4v-4z
      M85 80v4h4v-4z
      M90 80v4h4v-4z
      M30 85v4h4v-4z
      M35 85v4h4v-4z
      M60 85v4h4v-4z
      M65 85v4h4v-4z
    "
  >
  </path>
</svg>
