<svg xmlns="http://www.w3.org/2000/svg" fill="none" viewBox="-4 11 102 72">
  <path
    fill="#ff75aa"
    d="
      M35 15v4h4v-4z
      M40 15v4h4v-4z
      M45 15v4h4v-4z
      M50 15v4h4v-4z
      M55 15v4h4v-4z
      M30 20v4h4v-4z
      M35 20v4h4v-4z
      M40 20v4h4v-4z
      M45 20v4h4v-4z
      M50 20v4h4v-4z
      M55 20v4h4v-4z
      M60 20v4h4v-4z
      M25 25v4h4v-4z
      M30 25v4h4v-4z
      M60 25v4h4v-4z
      M65 25v4h4v-4z
      M20 30v4h4v-4z
      M25 30v4h4v-4z
      M65 30v4h4v-4z
      M70 30v4h4v-4z
      M20 35v4h4v-4z
      M70 35v4h4v-4z
      M20 40v4h4v-4z
      M70 40v4h4v-4z
      M20 45v4h4v-4z
      M55 45v4h4v-4z
      M60 45v4h4v-4z
      M70 45v4h4v-4z
      M5 50v4h4v-4z
      M10 50v4h4v-4z
      M15 50v4h4v-4z
      M20 50v4h4v-4z
      M30 50v4h4v-4z
      M40 50v4h4v-4z
      M50 50v4h4v-4z
      M60 50v4h4v-4z
      M70 50v4h4v-4z
      M75 50v4h4v-4z
      M80 50v4h4v-4z
      M85 50v4h4v-4z
      M0 55v4h4v-4z
      M20 55v4h4v-4z
      M35 55v4h4v-4z
      M40 55v4h4v-4z
      M55 55v4h4v-4z
      M70 55v4h4v-4z
      M90 55v4h4v-4z
      M0 60v4h4v-4z
      M20 60v4h4v-4z
      M35 60v4h4v-4z
      M70 60v4h4v-4z
      M90 60v4h4v-4z
      M0 65v4h4v-4z
      M20 65v4h4v-4z
      M45 65v4h4v-4z
      M50 65v4h4v-4z
      M70 65v4h4v-4z
      M90 65v4h4v-4z
      M0 70v4h4v-4z
      M20 70v4h4v-4z
      M40 70v4h4v-4z
      M55 70v4h4v-4z
      M70 70v4h4v-4z
      M90 70v4h4v-4z
      M5 75v4h4v-4z
      M10 75v4h4v-4z
      M15 75v4h4v-4z
      M20 75v4h4v-4z
      M45 75v4h4v-4z
      M50 75v4h4v-4z
      M70 75v4h4v-4z
      M75 75v4h4v-4z
      M80 75v4h4v-4z
      M85 75v4h4v-4z
    "
  >
  </path>
</svg>
