<svg xmlns="http://www.w3.org/2000/svg" fill="none" style="margin:20px" viewBox="0 0 125 125"><path fill="#f8f9fa" d="M0 0v4h4V0zM5 0v4h4V0zM10 0v4h4V0zM15 0v4h4V0zM20 0v4h4V0zM25 0v4h4V0zM30 0v4h4V0zM35 0v4h4V0zM40 0v4h4V0zM45 0v4h4V0zM50 0v4h4V0zM55 0v4h4V0zM60 0v4h4V0zM65 0v4h4V0zM70 0v4h4V0zM75 0v4h4V0zM80 0v4h4V0zM85 0v4h4V0zM90 0v4h4V0zM95 0v4h4V0zM100 0v4h4V0zM105 0v4h4V0zM110 0v4h4V0zM115 0v4h4V0zM120 0v4h4V0zM0 5v4h4V5zM5 5v4h4V5zM10 5v4h4V5zM15 5v4h4V5z"/><path fill="currentColor" d="M20 5v4h4V5z"/><path fill="#f8f9fa" d="M25 5v4h4V5zM30 5v4h4V5zM35 5v4h4V5zM40 5v4h4V5zM45 5v4h4V5zM50 5v4h4V5zM55 5v4h4V5zM60 5v4h4V5zM65 5v4h4V5zM70 5v4h4V5zM75 5v4h4V5zM80 5v4h4V5zM85 5v4h4V5zM90 5v4h4V5zM95 5v4h4V5zM100 5v4h4V5zM105 5v4h4V5zM110 5v4h4V5zM115 5v4h4V5zM120 5v4h4V5zM0 10v4h4v-4zM5 10v4h4v-4z"/><path fill="currentColor" d="M10 10v4h4v-4z"/><path fill="#f8f9fa" d="M15 10v4h4v-4z"/><path fill="currentColor" d="M20 10v4h4v-4z"/><path fill="#f8f9fa" d="M25 10v4h4v-4zM30 10v4h4v-4zM35 10v4h4v-4zM40 10v4h4v-4zM45 10v4h4v-4zM50 10v4h4v-4zM55 10v4h4v-4zM60 10v4h4v-4zM65 10v4h4v-4zM70 10v4h4v-4zM75 10v4h4v-4zM80 10v4h4v-4zM85 10v4h4v-4zM90 10v4h4v-4zM95 10v4h4v-4z"/><path fill="currentColor" d="M100 10v4h4v-4z"/><path fill="#f8f9fa" d="M105 10v4h4v-4zM110 10v4h4v-4zM115 10v4h4v-4zM120 10v4h4v-4zM0 15v4h4v-4zM5 15v4h4v-4zM10 15v4h4v-4z"/><path fill="currentColor" d="M15 15v4h4v-4zM20 15v4h4v-4z"/><path fill="#f8f9fa" d="M25 15v4h4v-4zM30 15v4h4v-4zM35 15v4h4v-4zM40 15v4h4v-4zM45 15v4h4v-4zM50 15v4h4v-4zM55 15v4h4v-4zM60 15v4h4v-4zM65 15v4h4v-4zM70 15v4h4v-4zM75 15v4h4v-4zM80 15v4h4v-4zM85 15v4h4v-4zM90 15v4h4v-4zM95 15v4h4v-4z"/><path fill="currentColor" d="M100 15v4h4v-4z"/><path fill="#f8f9fa" d="M105 15v4h4v-4zM110 15v4h4v-4zM115 15v4h4v-4zM120 15v4h4v-4zM0 20v4h4v-4zM5 20v4h4v-4zM10 20v4h4v-4zM15 20v4h4v-4zM20 20v4h4v-4zM25 20v4h4v-4zM30 20v4h4v-4zM35 20v4h4v-4zM40 20v4h4v-4zM45 20v4h4v-4zM50 20v4h4v-4zM55 20v4h4v-4zM60 20v4h4v-4zM65 20v4h4v-4zM70 20v4h4v-4zM75 20v4h4v-4zM80 20v4h4v-4zM85 20v4h4v-4zM90 20v4h4v-4zM95 20v4h4v-4z"/><path fill="currentColor" d="M100 20v4h4v-4z"/><path fill="#f8f9fa" d="M105 20v4h4v-4zM110 20v4h4v-4zM115 20v4h4v-4zM120 20v4h4v-4zM0 25v4h4v-4zM5 25v4h4v-4zM10 25v4h4v-4zM15 25v4h4v-4zM20 25v4h4v-4zM25 25v4h4v-4zM30 25v4h4v-4zM35 25v4h4v-4zM40 25v4h4v-4z"/><path fill="currentColor" d="M45 25v4h4v-4zM50 25v4h4v-4zM55 25v4h4v-4zM60 25v4h4v-4zM65 25v4h4v-4zM70 25v4h4v-4zM75 25v4h4v-4z"/><path fill="#f8f9fa" d="M80 25v4h4v-4zM85 25v4h4v-4zM90 25v4h4v-4zM95 25v4h4v-4zM100 25v4h4v-4zM105 25v4h4v-4zM110 25v4h4v-4zM115 25v4h4v-4zM120 25v4h4v-4zM0 30v4h4v-4zM5 30v4h4v-4zM10 30v4h4v-4zM15 30v4h4v-4zM20 30v4h4v-4zM25 30v4h4v-4zM30 30v4h4v-4zM35 30v4h4v-4z"/><path fill="currentColor" d="M40 30v4h4v-4z"/><path fill="#f8f9fa" d="M45 30v4h4v-4zM50 30v4h4v-4zM55 30v4h4v-4zM60 30v4h4v-4zM65 30v4h4v-4zM70 30v4h4v-4zM75 30v4h4v-4z"/><path fill="currentColor" d="M80 30v4h4v-4z"/><path fill="#f8f9fa" d="M85 30v4h4v-4zM90 30v4h4v-4zM95 30v4h4v-4zM100 30v4h4v-4z"/><path fill="currentColor" d="M105 30v4h4v-4zM110 30v4h4v-4zM115 30v4h4v-4z"/><path fill="#f8f9fa" d="M120 30v4h4v-4zM0 35v4h4v-4zM5 35v4h4v-4zM10 35v4h4v-4zM15 35v4h4v-4zM20 35v4h4v-4zM25 35v4h4v-4zM30 35v4h4v-4z"/><path fill="currentColor" d="M35 35v4h4v-4z"/><path fill="#f8f9fa" d="M40 35v4h4v-4zM45 35v4h4v-4zM50 35v4h4v-4zM55 35v4h4v-4zM60 35v4h4v-4zM65 35v4h4v-4zM70 35v4h4v-4zM75 35v4h4v-4zM80 35v4h4v-4z"/><path fill="currentColor" d="M85 35v4h4v-4z"/><path fill="#f8f9fa" d="M90 35v4h4v-4zM95 35v4h4v-4zM100 35v4h4v-4zM105 35v4h4v-4zM110 35v4h4v-4zM115 35v4h4v-4zM120 35v4h4v-4zM0 40v4h4v-4zM5 40v4h4v-4zM10 40v4h4v-4zM15 40v4h4v-4zM20 40v4h4v-4zM25 40v4h4v-4z"/><path fill="currentColor" d="M30 40v4h4v-4z"/><path fill="#f8f9fa" d="M35 40v4h4v-4zM40 40v4h4v-4zM45 40v4h4v-4zM50 40v4h4v-4zM55 40v4h4v-4zM60 40v4h4v-4zM65 40v4h4v-4zM70 40v4h4v-4zM75 40v4h4v-4zM80 40v4h4v-4zM85 40v4h4v-4z"/><path fill="currentColor" d="M90 40v4h4v-4z"/><path fill="#f8f9fa" d="M95 40v4h4v-4zM100 40v4h4v-4zM105 40v4h4v-4zM110 40v4h4v-4zM115 40v4h4v-4zM120 40v4h4v-4zM0 45v4h4v-4zM5 45v4h4v-4zM10 45v4h4v-4zM15 45v4h4v-4zM20 45v4h4v-4zM25 45v4h4v-4z"/><path fill="currentColor" d="M30 45v4h4v-4z"/><path fill="#f8f9fa" d="M35 45v4h4v-4zM40 45v4h4v-4zM45 45v4h4v-4zM50 45v4h4v-4zM55 45v4h4v-4zM60 45v4h4v-4zM65 45v4h4v-4zM70 45v4h4v-4zM75 45v4h4v-4zM80 45v4h4v-4zM85 45v4h4v-4z"/><path fill="currentColor" d="M90 45v4h4v-4z"/><path fill="#f8f9fa" d="M95 45v4h4v-4zM100 45v4h4v-4zM105 45v4h4v-4zM110 45v4h4v-4zM115 45v4h4v-4zM120 45v4h4v-4zM0 50v4h4v-4zM5 50v4h4v-4zM10 50v4h4v-4zM15 50v4h4v-4zM20 50v4h4v-4z"/><path fill="currentColor" d="M25 50v4h4v-4z"/><path fill="#f8f9fa" d="M30 50v4h4v-4zM35 50v4h4v-4zM40 50v4h4v-4zM45 50v4h4v-4zM50 50v4h4v-4zM55 50v4h4v-4zM60 50v4h4v-4zM65 50v4h4v-4zM70 50v4h4v-4zM75 50v4h4v-4zM80 50v4h4v-4zM85 50v4h4v-4zM90 50v4h4v-4z"/><path fill="currentColor" d="M95 50v4h4v-4z"/><path fill="#f8f9fa" d="M100 50v4h4v-4zM105 50v4h4v-4zM110 50v4h4v-4zM115 50v4h4v-4zM120 50v4h4v-4zM0 55v4h4v-4zM5 55v4h4v-4zM10 55v4h4v-4zM15 55v4h4v-4zM20 55v4h4v-4z"/><path fill="currentColor" d="M25 55v4h4v-4z"/><path fill="#f8f9fa" d="M30 55v4h4v-4zM35 55v4h4v-4zM40 55v4h4v-4zM45 55v4h4v-4zM50 55v4h4v-4zM55 55v4h4v-4zM60 55v4h4v-4zM65 55v4h4v-4zM70 55v4h4v-4zM75 55v4h4v-4zM80 55v4h4v-4zM85 55v4h4v-4zM90 55v4h4v-4z"/><path fill="currentColor" d="M95 55v4h4v-4z"/><path fill="#f8f9fa" d="M100 55v4h4v-4zM105 55v4h4v-4zM110 55v4h4v-4zM115 55v4h4v-4zM120 55v4h4v-4zM0 60v4h4v-4zM5 60v4h4v-4zM10 60v4h4v-4zM15 60v4h4v-4zM20 60v4h4v-4z"/><path fill="currentColor" d="M25 60v4h4v-4z"/><path fill="#f8f9fa" d="M30 60v4h4v-4zM35 60v4h4v-4zM40 60v4h4v-4zM45 60v4h4v-4zM50 60v4h4v-4z"/><path fill="currentColor" d="M55 60v4h4v-4z"/><path fill="#f8f9fa" d="M60 60v4h4v-4zM65 60v4h4v-4zM70 60v4h4v-4zM75 60v4h4v-4zM80 60v4h4v-4zM85 60v4h4v-4zM90 60v4h4v-4z"/><path fill="currentColor" d="M95 60v4h4v-4z"/><path fill="#f8f9fa" d="M100 60v4h4v-4zM105 60v4h4v-4zM110 60v4h4v-4zM115 60v4h4v-4zM120 60v4h4v-4zM0 65v4h4v-4zM5 65v4h4v-4z"/><path fill="currentColor" d="M10 65v4h4v-4zM15 65v4h4v-4zM20 65v4h4v-4zM25 65v4h4v-4z"/><path fill="#f8f9fa" d="M30 65v4h4v-4zM35 65v4h4v-4zM40 65v4h4v-4zM45 65v4h4v-4zM50 65v4h4v-4z"/><path fill="currentColor" d="M55 65v4h4v-4z"/><path fill="#f8f9fa" d="M60 65v4h4v-4zM65 65v4h4v-4zM70 65v4h4v-4z"/><path fill="currentColor" d="M75 65v4h4v-4z"/><path fill="#f8f9fa" d="M80 65v4h4v-4zM85 65v4h4v-4zM90 65v4h4v-4z"/><path fill="currentColor" d="M95 65v4h4v-4zM100 65v4h4v-4zM105 65v4h4v-4zM110 65v4h4v-4z"/><path fill="#f8f9fa" d="M115 65v4h4v-4zM120 65v4h4v-4zM0 70v4h4v-4z"/><path fill="currentColor" d="M5 70v4h4v-4z"/><path fill="#f8f9fa" d="M10 70v4h4v-4zM15 70v4h4v-4zM20 70v4h4v-4z"/><path fill="currentColor" d="M25 70v4h4v-4z"/><path fill="#f8f9fa" d="M30 70v4h4v-4zM35 70v4h4v-4zM40 70v4h4v-4z"/><path fill="currentColor" d="M45 70v4h4v-4z"/><path fill="#f8f9fa" d="M50 70v4h4v-4z"/><path fill="currentColor" d="M55 70v4h4v-4z"/><path fill="#f8f9fa" d="M60 70v4h4v-4z"/><path fill="currentColor" d="M65 70v4h4v-4z"/><path fill="#f8f9fa" d="M70 70v4h4v-4z"/><path fill="currentColor" d="M75 70v4h4v-4z"/><path fill="#f8f9fa" d="M80 70v4h4v-4zM85 70v4h4v-4zM90 70v4h4v-4z"/><path fill="currentColor" d="M95 70v4h4v-4z"/><path fill="#f8f9fa" d="M100 70v4h4v-4zM105 70v4h4v-4zM110 70v4h4v-4z"/><path fill="currentColor" d="M115 70v4h4v-4z"/><path fill="#f8f9fa" d="M120 70v4h4v-4zM0 75v4h4v-4z"/><path fill="currentColor" d="M5 75v4h4v-4z"/><path fill="#f8f9fa" d="M10 75v4h4v-4zM15 75v4h4v-4zM20 75v4h4v-4z"/><path fill="currentColor" d="M25 75v4h4v-4z"/><path fill="#f8f9fa" d="M30 75v4h4v-4z"/><path fill="currentColor" d="M35 75v4h4v-4z"/><path fill="#f8f9fa" d="M40 75v4h4v-4z"/><path fill="currentColor" d="M45 75v4h4v-4z"/><path fill="#f8f9fa" d="M50 75v4h4v-4z"/><path fill="currentColor" d="M55 75v4h4v-4z"/><path fill="#f8f9fa" d="M60 75v4h4v-4z"/><path fill="currentColor" d="M65 75v4h4v-4z"/><path fill="#f8f9fa" d="M70 75v4h4v-4z"/><path fill="currentColor" d="M75 75v4h4v-4z"/><path fill="#f8f9fa" d="M80 75v4h4v-4z"/><path fill="currentColor" d="M85 75v4h4v-4z"/><path fill="#f8f9fa" d="M90 75v4h4v-4z"/><path fill="currentColor" d="M95 75v4h4v-4z"/><path fill="#f8f9fa" d="M100 75v4h4v-4zM105 75v4h4v-4zM110 75v4h4v-4z"/><path fill="currentColor" d="M115 75v4h4v-4z"/><path fill="#f8f9fa" d="M120 75v4h4v-4zM0 80v4h4v-4z"/><path fill="currentColor" d="M5 80v4h4v-4z"/><path fill="#f8f9fa" d="M10 80v4h4v-4zM15 80v4h4v-4zM20 80v4h4v-4z"/><path fill="currentColor" d="M25 80v4h4v-4z"/><path fill="#f8f9fa" d="M30 80v4h4v-4z"/><path fill="currentColor" d="M35 80v4h4v-4z"/><path fill="#f8f9fa" d="M40 80v4h4v-4z"/><path fill="currentColor" d="M45 80v4h4v-4z"/><path fill="#f8f9fa" d="M50 80v4h4v-4z"/><path fill="currentColor" d="M55 80v4h4v-4z"/><path fill="#f8f9fa" d="M60 80v4h4v-4z"/><path fill="currentColor" d="M65 80v4h4v-4z"/><path fill="#f8f9fa" d="M70 80v4h4v-4z"/><path fill="currentColor" d="M75 80v4h4v-4z"/><path fill="#f8f9fa" d="M80 80v4h4v-4z"/><path fill="currentColor" d="M85 80v4h4v-4z"/><path fill="#f8f9fa" d="M90 80v4h4v-4z"/><path fill="currentColor" d="M95 80v4h4v-4z"/><path fill="#f8f9fa" d="M100 80v4h4v-4zM105 80v4h4v-4zM110 80v4h4v-4z"/><path fill="currentColor" d="M115 80v4h4v-4z"/><path fill="#f8f9fa" d="M120 80v4h4v-4zM0 85v4h4v-4z"/><path fill="currentColor" d="M5 85v4h4v-4z"/><path fill="#f8f9fa" d="M10 85v4h4v-4zM15 85v4h4v-4zM20 85v4h4v-4z"/><path fill="currentColor" d="M25 85v4h4v-4z"/><path fill="#f8f9fa" d="M30 85v4h4v-4z"/><path fill="currentColor" d="M35 85v4h4v-4z"/><path fill="#f8f9fa" d="M40 85v4h4v-4z"/><path fill="currentColor" d="M45 85v4h4v-4z"/><path fill="#f8f9fa" d="M50 85v4h4v-4z"/><path fill="currentColor" d="M55 85v4h4v-4z"/><path fill="#f8f9fa" d="M60 85v4h4v-4z"/><path fill="currentColor" d="M65 85v4h4v-4z"/><path fill="#f8f9fa" d="M70 85v4h4v-4z"/><path fill="currentColor" d="M75 85v4h4v-4z"/><path fill="#f8f9fa" d="M80 85v4h4v-4z"/><path fill="currentColor" d="M85 85v4h4v-4z"/><path fill="#f8f9fa" d="M90 85v4h4v-4z"/><path fill="currentColor" d="M95 85v4h4v-4z"/><path fill="#f8f9fa" d="M100 85v4h4v-4zM105 85v4h4v-4zM110 85v4h4v-4z"/><path fill="currentColor" d="M115 85v4h4v-4z"/><path fill="#f8f9fa" d="M120 85v4h4v-4zM0 90v4h4v-4z"/><path fill="currentColor" d="M5 90v4h4v-4z"/><path fill="#f8f9fa" d="M10 90v4h4v-4zM15 90v4h4v-4zM20 90v4h4v-4z"/><path fill="currentColor" d="M25 90v4h4v-4z"/><path fill="#f8f9fa" d="M30 90v4h4v-4zM35 90v4h4v-4zM40 90v4h4v-4z"/><path fill="currentColor" d="M45 90v4h4v-4z"/><path fill="#f8f9fa" d="M50 90v4h4v-4z"/><path fill="currentColor" d="M55 90v4h4v-4z"/><path fill="#f8f9fa" d="M60 90v4h4v-4z"/><path fill="currentColor" d="M65 90v4h4v-4z"/><path fill="#f8f9fa" d="M70 90v4h4v-4z"/><path fill="currentColor" d="M75 90v4h4v-4z"/><path fill="#f8f9fa" d="M80 90v4h4v-4zM85 90v4h4v-4zM90 90v4h4v-4z"/><path fill="currentColor" d="M95 90v4h4v-4z"/><path fill="#f8f9fa" d="M100 90v4h4v-4zM105 90v4h4v-4zM110 90v4h4v-4z"/><path fill="currentColor" d="M115 90v4h4v-4z"/><path fill="#f8f9fa" d="M120 90v4h4v-4zM0 95v4h4v-4zM5 95v4h4v-4z"/><path fill="currentColor" d="M10 95v4h4v-4zM15 95v4h4v-4zM20 95v4h4v-4zM25 95v4h4v-4z"/><path fill="#f8f9fa" d="M30 95v4h4v-4zM35 95v4h4v-4zM40 95v4h4v-4zM45 95v4h4v-4zM50 95v4h4v-4z"/><path fill="currentColor" d="M55 95v4h4v-4z"/><path fill="#f8f9fa" d="M60 95v4h4v-4zM65 95v4h4v-4zM70 95v4h4v-4z"/><path fill="currentColor" d="M75 95v4h4v-4z"/><path fill="#f8f9fa" d="M80 95v4h4v-4zM85 95v4h4v-4zM90 95v4h4v-4z"/><path fill="currentColor" d="M95 95v4h4v-4zM100 95v4h4v-4zM105 95v4h4v-4zM110 95v4h4v-4z"/><path fill="#f8f9fa" d="M115 95v4h4v-4zM120 95v4h4v-4zM0 100v4h4v-4zM5 100v4h4v-4zM10 100v4h4v-4zM15 100v4h4v-4zM20 100v4h4v-4zM25 100v4h4v-4zM30 100v4h4v-4zM35 100v4h4v-4zM40 100v4h4v-4zM45 100v4h4v-4zM50 100v4h4v-4z"/><path fill="currentColor" d="M55 100v4h4v-4z"/><path fill="#f8f9fa" d="M60 100v4h4v-4zM65 100v4h4v-4zM70 100v4h4v-4zM75 100v4h4v-4zM80 100v4h4v-4zM85 100v4h4v-4zM90 100v4h4v-4zM95 100v4h4v-4zM100 100v4h4v-4zM105 100v4h4v-4zM110 100v4h4v-4zM115 100v4h4v-4zM120 100v4h4v-4zM0 105v4h4v-4zM5 105v4h4v-4zM10 105v4h4v-4zM15 105v4h4v-4zM20 105v4h4v-4zM25 105v4h4v-4zM30 105v4h4v-4zM35 105v4h4v-4zM40 105v4h4v-4zM45 105v4h4v-4zM50 105v4h4v-4zM55 105v4h4v-4zM60 105v4h4v-4zM65 105v4h4v-4zM70 105v4h4v-4zM75 105v4h4v-4zM80 105v4h4v-4zM85 105v4h4v-4zM90 105v4h4v-4zM95 105v4h4v-4zM100 105v4h4v-4zM105 105v4h4v-4z"/><path fill="currentColor" d="M110 105v4h4v-4z"/><path fill="#f8f9fa" d="M115 105v4h4v-4zM120 105v4h4v-4zM0 110v4h4v-4zM5 110v4h4v-4zM10 110v4h4v-4z"/><path fill="currentColor" d="M15 110v4h4v-4zM20 110v4h4v-4z"/><path fill="#f8f9fa" d="M25 110v4h4v-4zM30 110v4h4v-4zM35 110v4h4v-4zM40 110v4h4v-4zM45 110v4h4v-4zM50 110v4h4v-4zM55 110v4h4v-4zM60 110v4h4v-4zM65 110v4h4v-4zM70 110v4h4v-4z"/><path fill="currentColor" d="M75 110v4h4v-4zM80 110v4h4v-4z"/><path fill="#f8f9fa" d="M85 110v4h4v-4zM90 110v4h4v-4zM95 110v4h4v-4zM100 110v4h4v-4z"/><path fill="currentColor" d="M105 110v4h4v-4z"/><path fill="#f8f9fa" d="M110 110v4h4v-4z"/><path fill="currentColor" d="M115 110v4h4v-4z"/><path fill="#f8f9fa" d="M120 110v4h4v-4zM0 115v4h4v-4zM5 115v4h4v-4zM10 115v4h4v-4z"/><path fill="currentColor" d="M15 115v4h4v-4zM20 115v4h4v-4z"/><path fill="#f8f9fa" d="M25 115v4h4v-4zM30 115v4h4v-4zM35 115v4h4v-4zM40 115v4h4v-4zM45 115v4h4v-4zM50 115v4h4v-4zM55 115v4h4v-4zM60 115v4h4v-4zM65 115v4h4v-4z"/><path fill="currentColor" d="M70 115v4h4v-4z"/><path fill="#f8f9fa" d="M75 115v4h4v-4zM80 115v4h4v-4z"/><path fill="currentColor" d="M85 115v4h4v-4z"/><path fill="#f8f9fa" d="M90 115v4h4v-4zM95 115v4h4v-4zM100 115v4h4v-4zM105 115v4h4v-4z"/><path fill="currentColor" d="M110 115v4h4v-4zM115 115v4h4v-4z"/><path fill="#f8f9fa" d="M120 115v4h4v-4zM0 120v4h4v-4zM5 120v4h4v-4zM10 120v4h4v-4zM15 120v4h4v-4zM20 120v4h4v-4zM25 120v4h4v-4zM30 120v4h4v-4zM35 120v4h4v-4zM40 120v4h4v-4zM45 120v4h4v-4zM50 120v4h4v-4zM55 120v4h4v-4zM60 120v4h4v-4zM65 120v4h4v-4zM70 120v4h4v-4z"/><path fill="currentColor" d="M75 120v4h4v-4zM80 120v4h4v-4z"/><path fill="#f8f9fa" d="M85 120v4h4v-4zM90 120v4h4v-4zM95 120v4h4v-4zM100 120v4h4v-4zM105 120v4h4v-4zM110 120v4h4v-4zM115 120v4h4v-4zM120 120v4h4v-4z"/></svg>